<svg width="406" height="397" viewBox="0 0 406 397" fill="none" xmlns="http://www.w3.org/2000/svg">
<g clip-path="url(#clip0_22_444)">
<path d="M203 78.9352C135.579 78.9352 80.7247 132.569 80.7247 198.495C80.7247 264.426 135.579 318.065 203 318.065C270.421 318.065 325.275 264.426 325.275 198.495C325.275 132.569 270.421 78.9352 203 78.9352ZM203 298.699C146.497 298.699 100.53 253.746 100.53 198.495C100.53 143.249 146.497 98.3011 203 98.3011C259.503 98.3011 305.47 143.249 305.47 198.495C305.47 253.746 259.503 298.699 203 298.699ZM201.465 134.162C167.525 138.48 158.558 162.707 158.558 174.912C158.558 180.257 162.994 184.595 168.46 184.595C173.926 184.595 178.363 180.257 178.363 174.912C178.363 174.167 178.655 156.592 204.015 153.368C219.854 151.373 227.801 158.175 229.989 165.22C231.791 171.044 229.994 178.679 221.894 182.605C195.024 195.619 192.84 211.761 192.84 229.994C192.84 235.339 197.276 239.677 202.743 239.677C208.209 239.677 212.645 235.339 212.645 229.994C212.645 215.605 213.412 208.318 230.692 199.957C246.442 192.322 253.943 175.726 248.942 159.599C244.268 144.537 227.83 130.879 201.465 134.162ZM202.757 247.316C197.291 247.316 192.855 251.654 192.855 256.999V263.119C192.855 268.464 197.291 272.802 202.757 272.802C208.224 272.802 212.66 268.464 212.66 263.119V256.999C212.66 251.654 208.228 247.316 202.757 247.316ZM7.42683 264.828C11.5264 264.828 14.8537 261.575 14.8537 257.566V233.741C14.8537 229.732 11.5264 226.479 7.42683 226.479C3.32722 226.479 0 229.732 0 233.741V257.566C0 261.575 3.32722 264.828 7.42683 264.828ZM7.42683 317.247C11.5264 317.247 14.8537 313.993 14.8537 309.984V286.16C14.8537 282.151 11.5264 278.897 7.42683 278.897C3.32722 278.897 0 282.151 0 286.16V309.984C0 313.993 3.32722 317.247 7.42683 317.247ZM30.6728 23.2923C27.6674 20.5714 22.9687 20.736 20.1762 23.6748C14.007 30.1768 9.13005 37.6182 5.67905 45.7954C4.11942 49.5088 5.92166 53.7548 9.70934 55.2798C10.6402 55.6526 11.5958 55.8269 12.5365 55.8269C15.4577 55.8269 18.2254 54.1324 19.4088 51.334C22.1815 44.7593 26.1028 38.7753 31.064 33.5513C33.8564 30.6126 33.6831 26.018 30.6728 23.2923ZM16.4876 336.767C15.5468 332.86 11.5413 330.449 7.55061 331.369C3.55497 332.289 1.08432 336.201 2.03 340.108C4.10951 348.716 7.7239 356.821 12.784 364.194C14.2199 366.286 16.5668 367.414 18.9582 367.414C20.3792 367.414 21.82 367.017 23.0875 366.184C26.494 363.947 27.405 359.435 25.1225 356.109C21.0625 350.178 18.1561 343.671 16.4876 336.767ZM155.919 14.5244H180.284C184.383 14.5244 187.711 11.2709 187.711 7.2622C187.711 3.25346 184.383 0 180.284 0H155.919C151.819 0 148.492 3.25346 148.492 7.2622C148.492 11.2709 151.819 14.5244 155.919 14.5244ZM209.526 14.5244H233.891C237.99 14.5244 241.317 11.2709 241.317 7.2622C241.317 3.25346 237.99 0 233.891 0H209.526C205.426 0 202.099 3.25346 202.099 7.2622C202.099 11.2709 205.426 14.5244 209.526 14.5244ZM263.133 14.5244H287.498C291.597 14.5244 294.924 11.2709 294.924 7.2622C294.924 3.25346 291.597 0 287.493 0H263.128C259.028 0 255.701 3.25346 255.701 7.2622C255.701 11.2709 259.028 14.5244 263.133 14.5244ZM363.969 24.43C370.034 28.371 375.278 33.2947 379.565 39.0561C381.021 41.0072 383.284 42.0433 385.576 42.0433C387.096 42.0433 388.621 41.5882 389.943 40.6538C393.261 38.296 393.988 33.7498 391.577 30.5061C386.25 23.3455 379.729 17.2356 372.198 12.3312C368.792 10.1138 364.177 11.0095 361.9 14.3549C359.627 17.6956 360.553 22.2078 363.969 24.43ZM63.841 381.357C56.7113 379.982 49.9479 377.392 43.7539 373.65C40.2831 371.548 35.6884 372.599 33.5346 376.012C31.3808 379.426 32.4602 383.899 35.9508 386.005C43.6698 390.663 52.0868 393.892 60.9693 395.601C61.4545 395.698 61.9348 395.736 62.4151 395.736C65.8908 395.736 68.9952 393.34 69.6934 389.878C70.4806 385.947 67.8614 382.132 63.841 381.357ZM7.42683 212.414C11.5264 212.414 14.8537 209.161 14.8537 205.152V181.322C14.8537 177.314 11.5264 174.06 7.42683 174.06C3.32722 174.06 0 177.314 0 181.322V205.152C0 209.161 3.32722 212.414 7.42683 212.414ZM7.42683 159.996C11.5264 159.996 14.8537 156.742 14.8537 152.734V128.909C14.8537 124.9 11.5264 121.647 7.42683 121.647C3.32722 121.647 0 124.9 0 128.909V152.734C0 156.742 3.32722 159.996 7.42683 159.996ZM102.312 14.5244H126.682C130.782 14.5244 134.109 11.2709 134.109 7.2622C134.109 3.25346 130.782 0 126.682 0H102.312C98.2124 0 94.8852 3.25346 94.8852 7.2622C94.8852 11.2709 98.2124 14.5244 102.312 14.5244ZM7.42683 107.582C11.5264 107.582 14.8537 104.329 14.8537 100.32V76.4903C14.8537 72.4816 11.5264 69.2281 7.42683 69.2281C3.32722 69.2281 0 72.4816 0 76.4903V100.32C0 104.329 3.32722 107.582 7.42683 107.582ZM398.573 210.657C394.474 210.657 391.146 213.91 391.146 217.919V241.744C391.146 245.753 394.474 249.006 398.573 249.006C402.673 249.006 406 245.753 406 241.744V217.919C406 213.91 402.673 210.657 398.573 210.657ZM398.573 263.071C394.474 263.071 391.146 266.324 391.146 270.333V294.163C391.146 298.171 394.474 301.425 398.573 301.425C402.673 301.425 406 298.171 406 294.163V270.333C406 266.324 402.673 263.071 398.573 263.071ZM72.7928 0.0532545C63.7123 0.387316 54.8793 2.28033 46.5464 5.67419C42.7587 7.21862 40.9713 11.4694 42.5458 15.1731C43.7341 17.9618 46.4969 19.6418 49.4082 19.6418C50.3589 19.6418 51.3293 19.4627 52.2601 19.0851C58.9542 16.3593 66.0443 14.8391 73.3523 14.568C77.447 14.4179 80.6504 11.0434 80.492 7.03465C80.3335 3.02591 77.0014 -0.188819 72.7928 0.0532545ZM398.573 158.238C394.474 158.238 391.146 161.492 391.146 165.501V189.33C391.146 193.339 394.474 196.592 398.573 196.592C402.673 196.592 406 193.339 406 189.33V165.501C406 161.487 402.673 158.238 398.573 158.238ZM404.52 59.3273C403.708 55.3912 399.761 52.8688 395.771 53.6386C391.745 54.4326 389.146 58.2622 389.953 62.1934C390.745 66.0472 391.146 70.0027 391.141 73.9776V84.4932C391.141 88.502 394.469 91.7554 398.568 91.7554C402.668 91.7554 405.995 88.502 405.995 84.4932V73.9872C406.005 69.0538 405.505 64.1252 404.52 59.3273ZM398.573 105.82C394.474 105.82 391.146 109.073 391.146 113.082V136.907C391.146 140.916 394.474 144.169 398.573 144.169C402.673 144.169 406 140.916 406 136.907V113.082C406 109.073 402.673 105.82 398.573 105.82ZM373.332 365.066C368.173 370.106 362.206 374.163 355.597 377.121C351.863 378.791 350.225 383.1 351.933 386.746C353.185 389.413 355.879 390.987 358.691 390.987C359.726 390.987 360.776 390.774 361.776 390.328C370 386.644 377.422 381.604 383.833 375.339C386.735 372.502 386.735 367.903 383.838 365.066C380.937 362.233 376.233 362.238 373.332 365.066ZM398.573 315.625C394.474 315.625 391.146 319.014 391.146 323.022C391.146 330.183 389.859 337.174 387.329 343.802C385.893 347.559 387.844 351.747 391.686 353.151C392.548 353.461 393.424 353.611 394.285 353.611C397.291 353.611 400.128 351.81 401.242 348.89C404.401 340.626 406 331.931 406 323.027V322.751C406 318.743 402.673 315.625 398.573 315.625ZM223.132 382.476H198.767C194.667 382.476 191.34 385.729 191.34 389.738C191.34 393.747 194.667 397 198.767 397H223.132C227.231 397 230.559 393.747 230.559 389.738C230.559 385.729 227.236 382.476 223.132 382.476ZM169.525 382.476H145.16C141.06 382.476 137.733 385.729 137.733 389.738C137.733 393.747 141.06 397 145.16 397H169.525C173.624 397 176.952 393.747 176.952 389.738C176.952 385.729 173.624 382.476 169.525 382.476ZM115.923 382.476H91.553C87.4534 382.476 84.1262 385.729 84.1262 389.738C84.1262 393.747 87.4534 397 91.553 397H115.923C120.023 397 123.35 393.747 123.35 389.738C123.35 385.729 120.023 382.476 115.923 382.476ZM342.213 0.910194C338.312 0.305011 334.321 0 330.35 0H316.739C312.64 0 309.313 3.25346 309.313 7.2622C309.313 11.2709 312.64 14.5244 316.739 14.5244H330.35C333.549 14.5244 336.767 14.7713 339.906 15.2506C340.297 15.3135 340.684 15.3426 341.07 15.3426C344.664 15.3426 347.818 12.7911 348.393 9.20847C349.031 5.24815 346.268 1.5299 342.213 0.910194ZM276.738 382.476H252.374C248.274 382.476 244.947 385.729 244.947 389.738C244.947 393.747 248.274 397 252.374 397H276.738C280.838 397 284.165 393.747 284.165 389.738C284.165 385.729 280.838 382.476 276.738 382.476ZM330.345 382.476H305.98C301.881 382.476 298.554 385.729 298.554 389.738C298.554 393.747 301.881 397 305.98 397H330.345C334.445 397 337.772 393.747 337.772 389.738C337.772 385.729 334.445 382.476 330.345 382.476Z" fill="#5CD6B6"/>
</g>
<defs>
<clipPath id="clip0_22_444">
<rect width="406" height="397" fill="white"/>
</clipPath>
</defs>
</svg>
