<svg width="158" height="164" viewBox="0 0 158 164" fill="none" xmlns="http://www.w3.org/2000/svg">
<g clip-path="url(#clip0_14_133)">
<path fill-rule="evenodd" clip-rule="evenodd" d="M88.2212 37.6978C88.2212 39.0921 87.138 40.2244 85.8002 40.2244C84.4625 40.2244 83.3793 39.0939 83.3793 37.6978C83.3793 36.9264 83.4109 36.1715 83.4741 35.4368C84.0552 28.5806 87.2257 23.6171 91.5585 20.3631C93.5142 18.8955 95.6999 17.787 97.9839 17.0175C97.7065 17.9757 97.5555 18.9926 97.5555 20.0461C97.5555 20.8651 97.6468 21.6695 97.8224 22.4445C96.6023 22.9814 95.4401 23.6465 94.3745 24.4471C91.1214 26.8913 88.7355 30.6474 88.2949 35.8692C88.2457 36.4574 88.2212 37.0675 88.2212 37.6978ZM136.364 53.4274C136.417 51.4468 136.603 49.5376 137.124 47.6522C137.864 44.9864 139.242 42.4725 141.791 40.065C142.268 39.6143 142.749 39.1086 143.229 38.5534C143.692 38.0166 144.12 37.4688 144.514 36.9081C145.19 35.9462 146.485 35.7373 147.407 36.4427C148.329 37.1481 148.529 38.5003 147.853 39.4622C147.366 40.1566 146.85 40.8181 146.308 41.4447C145.786 42.0475 145.204 42.6539 144.563 43.2604C142.656 45.0615 141.633 46.9102 141.096 48.8523C140.701 50.2778 140.55 51.8059 140.5 53.4256H136.364V53.4274ZM140.437 57.7569C140.45 59.2722 140.49 60.8387 140.49 62.4639C140.49 66.7403 134.637 68.5304 128.782 68.3563C122.929 68.5304 117.074 66.7403 117.074 62.4639C117.074 60.8406 117.114 59.274 117.127 57.7569H140.437ZM151.72 19.7292C153.729 20.4712 155.168 22.4702 155.168 24.8191C155.168 27.8001 152.853 30.2168 149.996 30.2168C147.14 30.2168 144.824 27.8001 144.824 24.8191C144.824 22.7652 145.923 20.9788 147.542 20.0663C146.483 15.6616 144.177 11.8964 140.999 9.21222C137.728 6.45106 133.52 4.82954 128.784 4.82954C126.426 4.82954 124.217 5.22164 122.202 5.9472C120.118 6.69841 118.217 7.80874 116.554 9.21588C115.668 9.96709 114.365 9.82784 113.645 8.90257C112.926 7.9773 113.059 6.61779 113.946 5.86658C115.975 4.14979 118.301 2.79028 120.857 1.8705C123.329 0.980042 125.991 0.5 128.784 0.5C134.51 0.5 139.619 2.4788 143.608 5.84643C147.644 9.25619 150.521 14.0878 151.72 19.7292ZM107.569 14.6484C104.713 14.6484 102.397 17.0651 102.397 20.0461C102.397 22.155 103.556 23.9818 105.247 24.8704C105.175 28.3058 105.837 31.6588 107.12 34.7424C108.454 37.947 110.457 40.8565 113.003 43.2604C114.909 45.0615 115.933 46.9102 116.47 48.8523C116.865 50.2778 117.016 51.8059 117.065 53.4256H121.2C121.147 51.4449 120.963 49.5358 120.439 47.6504C119.7 44.9845 118.322 42.4707 115.773 40.0632C113.666 38.0715 112.009 35.6713 110.912 33.0329C109.881 30.5558 109.341 27.8642 109.378 25.1031C111.342 24.3372 112.741 22.3621 112.741 20.0443C112.741 17.0651 110.426 14.6484 107.569 14.6484ZM126.707 53.4274H130.855V39.8323C133.575 38.918 135.543 36.2558 135.543 33.1136C135.543 29.2164 132.516 26.0577 128.782 26.0577C125.048 26.0577 122.021 29.2164 122.021 33.1154C122.021 36.2576 123.989 38.918 126.709 39.8323L126.707 53.4274ZM72.2595 76.7717H87.7682V92.9576H72.2595V90.092V84.8647V76.7717ZM27.8136 118.266C29.5937 118.651 31.2773 119.31 32.824 120.203L37.7765 115.402L43.4821 121.099L39.1599 126.33C40.1307 127.872 40.8909 129.576 41.3947 131.396L48.1466 131.656L48.3222 139.895L41.7248 140.405C41.3561 142.263 40.7241 144.02 39.8691 145.634L44.4687 150.803L39.0106 156.759L33.9967 152.248C32.5185 153.262 30.8858 154.055 29.1443 154.581L28.895 161.629L21.0002 161.813L20.5121 154.927C18.7337 154.542 17.0484 153.883 15.5017 152.99L10.5493 157.791L4.84363 152.094L9.16586 146.862C8.19502 145.319 7.43486 143.615 6.93101 141.797L0.175557 141.535L0 133.296L6.59745 132.786C6.96612 130.93 7.59813 129.171 8.45309 127.557L3.85349 122.389L9.31157 116.434L14.3255 120.945C15.8037 119.932 17.4364 119.138 19.1779 118.612L19.4272 111.564L27.322 111.381L27.8136 118.266ZM23.9671 127.468C19.1375 127.579 15.3086 131.757 15.4157 136.799C15.5228 141.841 19.5255 145.837 24.3568 145.724C29.1864 145.612 33.0171 141.435 32.9083 136.392C32.8012 131.352 28.7985 127.356 23.9671 127.468ZM119.216 78.5985C116.9 78.6571 114.957 80.209 114.207 82.349H98.0383V76.867H107.834C109.17 76.867 110.255 75.7365 110.255 74.3404C110.255 72.9461 109.172 71.8138 107.834 71.8138H98.0383V68.5689C98.0383 67.1801 96.9587 66.0532 95.6279 66.0532H88.1738L88.0649 59.0102C89.8152 58.0189 90.9844 56.0658 90.9318 53.8451C90.858 50.6919 88.3476 48.1964 85.3262 48.2734C82.3049 48.3503 79.9138 50.9704 79.9875 54.1236C80.0402 56.4066 81.3691 58.3414 83.2459 59.2099L83.3512 66.0532H75.9918V37.6978C75.9918 31.7119 73.6464 26.272 69.8701 22.3309C66.0921 18.388 60.8798 15.942 55.1461 15.942C51.4664 15.942 47.9904 16.9625 44.962 18.7453C42.2339 20.3521 39.8867 22.5746 38.096 25.2258C32.1024 25.4604 26.697 28.0933 22.7329 32.2304C18.5757 36.5691 16.0056 42.5605 16.0056 49.1803C16.0056 50.025 16.0477 50.8586 16.1302 51.6831C12.1012 53.2937 8.62163 56.0457 6.05849 59.5599C3.1179 63.5926 1.3711 68.6202 1.3711 74.0656C1.3711 80.0514 3.47428 85.5261 6.95032 89.7256C5.44755 91.5431 4.20109 93.6007 3.27239 95.8342C2.05051 98.7712 1.3711 102 1.3711 105.378C1.3711 107.859 1.73626 110.261 2.41567 112.529C2.71763 113.537 3.08279 114.517 3.50413 115.466L7.16626 111.47C7.11886 111.324 7.07321 111.177 7.02932 111.031C6.49738 109.255 6.21122 107.357 6.21122 105.378C6.21122 102.689 6.74141 100.142 7.69644 97.8478C8.40394 96.1475 9.34493 94.5773 10.4755 93.1793C14.329 96.2281 19.1305 98.0384 24.3393 98.0384C25.6753 98.0384 26.7602 96.9079 26.7602 95.5117C26.7602 94.1174 25.677 92.9851 24.3393 92.9851C19.6554 92.9851 15.3876 91.1309 12.1714 88.0894C12.1433 88.0546 12.1152 88.0198 12.0854 87.9868C11.9783 87.8659 11.8624 87.7596 11.7378 87.6661C11.6658 87.5929 11.5921 87.5196 11.5218 87.4444C8.24242 84.0219 6.21298 79.2911 6.21298 74.0674C6.21298 69.758 7.58584 65.7931 9.89793 62.6215C11.7799 60.0399 14.2781 57.9786 17.1572 56.6796C17.2117 56.8537 17.2696 57.0277 17.3275 57.2018C18.2123 59.8017 19.5185 62.1982 21.1599 64.3016C22.0009 65.3808 23.5194 65.5439 24.5535 64.6663C25.5875 63.7886 25.7438 62.2038 24.9028 61.1246C23.6125 59.4701 22.5837 57.581 21.8832 55.5235C21.641 54.8107 21.4391 54.0778 21.2793 53.3285C21.2741 53.1306 21.2477 52.929 21.1951 52.7293C21.174 52.6469 21.1477 52.5663 21.1196 52.4875C20.9405 51.4156 20.8457 50.3126 20.8457 49.1821C20.8457 43.9585 22.8751 39.2277 26.1546 35.8051C29.434 32.3825 33.9669 30.2644 38.972 30.2644C42.2479 30.2644 45.3167 31.1677 47.9641 32.7489C50.7186 34.3943 53.0166 36.7615 54.6159 39.5978C55.2901 40.7961 56.7665 41.1992 57.9147 40.4956C59.0628 39.792 59.449 38.2511 58.7749 37.0528C56.7402 33.4434 53.8347 30.4422 50.3657 28.3681C48.3924 27.19 46.2366 26.3068 43.9543 25.7792C44.9603 24.7476 46.0926 23.8553 47.325 23.1298C49.6284 21.7739 52.2968 20.9971 55.1461 20.9971C59.5456 20.9971 63.5465 22.8769 66.4485 25.9056C69.3505 28.9343 71.1517 33.1099 71.1517 37.7014V66.0569H64.4015C63.0708 66.0569 61.9911 67.1837 61.9911 68.5726V71.8266H52.195C50.8643 71.8266 49.7846 72.9534 49.7846 74.3422C49.7846 75.731 50.8643 76.8579 52.195 76.8579H61.9911V82.3509H45.7011C44.7637 80.4893 42.8711 79.2416 40.7206 79.2965C37.6992 79.3735 35.3081 81.9936 35.3819 85.1468C35.4556 88.3001 37.9661 90.7956 40.9874 90.7186C43.1503 90.6637 44.9884 89.306 45.8328 87.384H61.9911V92.877H52.195C50.8643 92.877 49.7846 94.0038 49.7846 95.3926C49.7846 96.7814 50.8643 97.9083 52.195 97.9083H61.9806V101.162H61.9894C61.9894 102.551 63.069 103.678 64.3998 103.678H71.1271L71.1693 111.628C69.4084 112.616 68.2304 114.576 68.2831 116.804C68.3568 119.957 70.8673 122.453 73.8886 122.376C76.91 122.299 79.3011 119.679 79.2273 116.525C79.1747 114.252 77.8545 112.321 75.9901 111.448L75.9479 103.68H83.3775V141.744C83.3775 147.73 85.723 153.17 89.4992 157.111C93.2772 161.054 98.4895 163.5 104.225 163.5C109.96 163.5 115.173 161.052 118.949 157.111C119.804 156.219 120.585 155.249 121.282 154.216C127.272 153.98 132.676 151.349 136.638 147.213C140.795 142.875 143.366 136.883 143.366 130.263C143.366 129.419 143.323 128.585 143.243 127.764C147.273 126.152 150.758 123.387 153.327 119.856C156.26 115.826 158 110.809 158 105.38C158 102.001 157.322 98.7749 156.099 95.836C155.168 93.6025 153.924 91.545 152.421 89.7274C155.897 85.5261 158 80.0533 158 74.0674C158 68.6239 156.253 63.5962 153.313 59.5617C151.215 56.6851 148.502 54.3197 145.377 52.6707C145.358 52.9803 145.344 53.29 145.335 53.5905L145.262 56.0108L145.276 57.7185C145.277 57.9622 145.281 58.2058 145.283 58.4495C146.882 59.5965 148.297 61.0073 149.473 62.6197C151.785 65.7912 153.158 69.758 153.158 74.0656C153.158 79.2892 151.129 84.02 147.849 87.4426C147.777 87.5177 147.705 87.591 147.633 87.6643C147.51 87.7577 147.395 87.864 147.286 87.9849C147.256 88.0179 147.228 88.0527 147.2 88.0876C143.983 91.129 139.714 92.9832 135.032 92.9832C133.696 92.9832 132.611 94.1137 132.611 95.5099C132.611 96.9042 133.694 98.0365 135.032 98.0365C140.239 98.0365 145.042 96.2263 148.896 93.1775C150.026 94.5755 150.967 96.1457 151.675 97.846C152.63 100.14 153.16 102.687 153.16 105.376C153.16 109.684 151.792 113.647 149.489 116.813C147.611 119.395 145.109 121.458 142.219 122.761C141.083 119.158 139.15 115.932 136.64 113.312C132.484 108.973 126.742 106.291 120.399 106.291C119.063 106.291 117.978 107.421 117.978 108.817C117.978 110.212 119.061 111.344 120.399 111.344C125.404 111.344 129.937 113.462 133.217 116.885C136.496 120.307 138.525 125.038 138.525 130.262C138.525 135.487 136.496 140.216 133.217 143.639C130.729 146.235 127.521 148.08 123.933 148.82C124.67 146.6 125.072 144.218 125.072 141.741C125.072 140.346 123.989 139.214 122.651 139.214C121.315 139.214 120.231 140.344 120.231 141.741C120.231 146.332 118.429 150.508 115.527 153.536C112.625 156.565 108.624 158.445 104.225 158.445C99.8255 158.445 95.8246 156.565 92.9226 153.536C90.0206 150.508 88.2194 146.332 88.2194 141.741V103.674H95.6262C96.9569 103.674 98.0366 102.547 98.0366 101.159V97.9046H107.833C109.163 97.9046 110.243 96.7778 110.243 95.389C110.243 94.0001 109.163 92.8733 107.833 92.8733H98.0366V87.3803H114.732C115.729 89.0092 117.495 90.0719 119.483 90.0205C122.504 89.9436 124.895 87.3235 124.821 84.1703C124.748 81.0152 122.237 78.5215 119.216 78.5985ZM93.2158 74.5621C93.2105 74.4888 93.207 74.4155 93.207 74.3404C93.207 74.2653 93.2105 74.192 93.2158 74.1187V71.0864H85.8248H85.7669H73.7833C73.7131 71.0919 73.6429 71.0955 73.5709 71.0955C73.4989 71.0955 73.4287 71.0919 73.3585 71.0864H66.8119V95.389H66.8207V98.643H85.5843C85.6545 98.6357 85.7265 98.6338 85.7985 98.6338C85.8704 98.6338 85.9424 98.6375 86.0126 98.643H93.2158V74.5621ZM71.1517 141.739C71.1517 146.33 69.3505 150.506 66.4485 153.535C63.5465 156.563 59.5456 158.443 55.1461 158.443C52.8059 158.443 50.5834 157.915 48.582 156.968C47.8816 156.636 47.2074 156.254 46.5649 155.827L43.1784 159.52C44.2493 160.31 45.3921 160.997 46.5965 161.565C49.214 162.804 52.109 163.493 55.1461 163.493C60.8816 163.493 66.0939 161.045 69.8701 157.104C73.6481 153.161 75.9918 147.721 75.9918 141.737C75.9918 140.343 74.9086 139.21 73.5709 139.21C72.2349 139.214 71.1517 140.344 71.1517 141.739Z" fill="#5CD6B6"/>
</g>
<defs>
<clipPath id="clip0_14_133">
<rect width="158" height="163" fill="white" transform="translate(0 0.5)"/>
</clipPath>
</defs>
</svg>
