<svg width="123" height="116" viewBox="0 0 123 116" fill="none" xmlns="http://www.w3.org/2000/svg">
<g clip-path="url(#clip0_22_460)">
<path d="M61.5 0.842529C28.0699 0.842529 0.880432 26.4846 0.880432 58C0.880432 89.5154 28.0699 115.157 61.5 115.157C94.9301 115.157 122.12 89.5154 122.12 58C122.12 26.4846 94.9301 0.842529 61.5 0.842529ZM61.5 111.592C30.1674 111.592 4.67401 87.5495 4.67401 58C4.67401 28.4505 30.1674 4.408 61.5 4.408C92.8326 4.408 118.326 28.4505 118.326 58C118.326 87.5495 92.8326 111.592 61.5 111.592ZM61.5 14.5672C36.1102 14.5672 15.4592 34.0552 15.4592 58C15.4592 81.9448 36.1102 101.433 61.5 101.433C86.8898 101.433 107.541 81.9448 107.541 58C107.541 34.0552 86.8898 14.5672 61.5 14.5672ZM61.5 97.8552C38.1947 97.8552 19.2398 79.979 19.2398 58C19.2398 36.0211 38.1947 18.1448 61.5 18.1448C84.8053 18.1448 103.76 36.0211 103.76 58C103.76 79.979 84.8053 97.8552 61.5 97.8552ZM70.5243 37.12H66.912V30.2699C66.912 29.2808 66.0575 28.4872 65.0217 28.4872C63.9859 28.4872 63.1314 29.2808 63.1314 30.2699V37.12H55.2464V30.2699C55.2464 29.2808 54.3919 28.4872 53.3561 28.4872C52.3203 28.4872 51.4658 29.2808 51.4658 30.2699V37.12H44.293C43.2442 37.12 42.4026 37.9137 42.4026 38.9027C42.4026 39.8918 43.2572 40.6855 44.293 40.6855H51.4658V75.2901H44.293C43.2442 75.2901 42.4026 76.0838 42.4026 77.0728C42.4026 78.0619 43.2572 78.8556 44.293 78.8556H51.4658V85.7057C51.4658 86.6947 52.3203 87.4884 53.3561 87.4884C54.3919 87.4884 55.2464 86.6947 55.2464 85.7057V78.88H63.1314V85.7301C63.1314 86.7192 63.9859 87.5128 65.0217 87.5128C66.0575 87.5128 66.912 86.7192 66.912 85.7301V78.88H70.5243C76.0787 78.88 80.5974 74.6185 80.5974 69.3802V65.7171C80.5974 62.5423 78.9272 59.7339 76.3765 58C78.9272 56.2783 80.5974 53.4577 80.5974 50.283V46.6198C80.6103 41.3815 76.0917 37.12 70.5243 37.12ZM76.8167 65.7171V69.3802C76.8167 72.6526 73.9942 75.3145 70.5243 75.3145H55.2464V59.7827H70.5243C73.9942 59.7827 76.8167 62.4446 76.8167 65.7171ZM76.8167 50.283C76.8167 53.5554 73.9942 56.2173 70.5243 56.2173H55.2464V40.6977H70.5243C73.9942 40.6977 76.8167 43.3596 76.8167 46.632V50.283Z" fill="#D59E10"/>
</g>
<defs>
<clipPath id="clip0_22_460">
<rect width="123" height="116" fill="white"/>
</clipPath>
</defs>
</svg>
