<svg width="61" height="51" viewBox="0 0 61 51" fill="none" xmlns="http://www.w3.org/2000/svg">
<path d="M59.9483 0.347778H1.05172C0.42069 0.347778 0 0.811415 0 1.50687V49.4932C0 50.1887 0.42069 50.6523 1.05172 50.6523H59.9483C60.5793 50.6523 61 50.1887 61 49.4932V1.50687C61 0.927324 60.5793 0.347778 59.9483 0.347778ZM58.8966 2.66596V11.591H2.10345V2.66596H58.8966ZM2.10345 48.3341V13.9091H58.8966V48.2182H2.10345V48.3341Z" fill="#5CD6B6"/>
<path d="M6.20517 8.34553H8.72931C9.36034 8.34553 9.78103 7.88189 9.78103 7.18644C9.78103 6.49098 9.36034 6.02734 8.72931 6.02734H6.20517C5.57414 6.02734 5.15345 6.49098 5.15345 7.18644C5.15345 7.88189 5.57414 8.34553 6.20517 8.34553Z" fill="#5CD6B6"/>
<path d="M12.6207 8.34553H15.1448C15.7759 8.34553 16.1966 7.88189 16.1966 7.18644C16.1966 6.49098 15.7759 6.02734 15.1448 6.02734H12.6207C11.9897 6.02734 11.569 6.49098 11.569 7.18644C11.569 7.88189 11.9897 8.34553 12.6207 8.34553Z" fill="#5CD6B6"/>
<path d="M18.931 8.34553H21.4552C22.0862 8.34553 22.5069 7.88189 22.5069 7.18644C22.5069 6.49098 22.0862 6.02734 21.4552 6.02734H18.931C18.3 6.02734 17.8793 6.49098 17.8793 7.18644C17.8793 7.88189 18.4052 8.34553 18.931 8.34553Z" fill="#5CD6B6"/>
<path d="M26.6086 8.34553H54.7948C55.4259 8.34553 55.8465 7.88189 55.8465 7.18644C55.8465 6.49098 55.4259 6.02734 54.7948 6.02734H26.6086C25.9776 6.02734 25.5569 6.49098 25.5569 7.18644C25.5569 7.88189 26.0828 8.34553 26.6086 8.34553Z" fill="#5CD6B6"/>
<path d="M39.3345 29.441C39.3345 29.3251 39.3345 29.2092 39.3345 29.0933C39.3345 29.0933 39.3345 29.0933 39.3345 28.9774L37.7569 23.2978C37.6517 22.8342 37.231 22.4865 36.7052 22.4865H24.2948C23.8741 22.4865 23.4534 22.8342 23.2431 23.2978L21.7707 28.9774V29.0933C21.7707 29.2092 21.7707 29.3251 21.7707 29.441V29.5569C21.7707 29.6728 21.8759 29.7887 21.8759 29.9046V30.0205L30.1845 41.4955C30.3948 41.7274 30.7103 41.9592 31.0259 41.9592C31.3414 41.9592 31.6569 41.7274 31.8672 41.4955L39.1241 30.0205C39.2293 29.7887 39.2293 29.6728 39.3345 29.441ZM25.031 24.8046H35.8638L36.8103 28.166H24.1897L25.031 24.8046ZM30.9207 38.8296L24.9259 30.4842H36.2845L30.9207 38.8296Z" fill="#5CD6B6"/>
<path d="M12.831 23.5295H7.67759C7.04655 23.5295 6.62586 23.9932 6.62586 24.6886C6.62586 25.3841 7.04655 25.8477 7.67759 25.8477H12.831C13.4621 25.8477 13.8828 25.3841 13.8828 24.6886C13.8828 23.9932 13.4621 23.5295 12.831 23.5295Z" fill="#5CD6B6"/>
<path d="M19.1414 23.5295H15.9862C15.3552 23.5295 14.9345 23.9932 14.9345 24.6886C14.9345 25.3841 15.3552 25.8477 15.9862 25.8477H19.1414C19.7724 25.8477 20.1931 25.3841 20.1931 24.6886C20.1931 23.9932 19.6672 23.5295 19.1414 23.5295Z" fill="#5CD6B6"/>
<path d="M47.1172 23.5295H41.9638C41.3328 23.5295 40.9121 23.9932 40.9121 24.6886C40.9121 25.3841 41.3328 25.8477 41.9638 25.8477H47.1172C47.7483 25.8477 48.169 25.3841 48.169 24.6886C48.169 23.9932 47.6431 23.5295 47.1172 23.5295Z" fill="#5CD6B6"/>
<path d="M53.3224 23.5295H50.1672C49.5362 23.5295 49.1155 23.9932 49.1155 24.6886C49.1155 25.3841 49.5362 25.8477 50.1672 25.8477H53.3224C53.9534 25.8477 54.3741 25.3841 54.3741 24.6886C54.3741 23.9932 53.8483 23.5295 53.3224 23.5295Z" fill="#5CD6B6"/>
<path d="M12.831 28.5137H7.67759C7.04655 28.5137 6.62586 28.9773 6.62586 29.6728C6.62586 30.3682 7.04655 30.8319 7.67759 30.8319H12.831C13.4621 30.8319 13.8828 30.3682 13.8828 29.6728C13.8828 28.9773 13.4621 28.5137 12.831 28.5137Z" fill="#5CD6B6"/>
<path d="M19.1414 28.5137H15.9862C15.3552 28.5137 14.9345 28.9773 14.9345 29.6728C14.9345 30.3682 15.3552 30.8319 15.9862 30.8319H19.1414C19.7724 30.8319 20.1931 30.3682 20.1931 29.6728C20.1931 28.9773 19.6672 28.5137 19.1414 28.5137Z" fill="#5CD6B6"/>
<path d="M47.1172 28.5137H41.9638C41.3328 28.5137 40.9121 28.9773 40.9121 29.6728C40.9121 30.3682 41.3328 30.8319 41.9638 30.8319H47.1172C47.7483 30.8319 48.169 30.3682 48.169 29.6728C48.169 28.9773 47.6431 28.5137 47.1172 28.5137Z" fill="#5CD6B6"/>
<path d="M53.3224 28.5137H50.1672C49.5362 28.5137 49.1155 28.9773 49.1155 29.6728C49.1155 30.3682 49.5362 30.8319 50.1672 30.8319H53.3224C53.9534 30.8319 54.3741 30.3682 54.3741 29.6728C54.3741 28.9773 53.8483 28.5137 53.3224 28.5137Z" fill="#5CD6B6"/>
<path d="M12.831 33.4978H7.67759C7.04655 33.4978 6.62586 33.9614 6.62586 34.6569C6.62586 35.3523 7.04655 35.816 7.67759 35.816H12.831C13.4621 35.816 13.8828 35.3523 13.8828 34.6569C13.8828 33.9614 13.4621 33.4978 12.831 33.4978Z" fill="#5CD6B6"/>
<path d="M19.1414 33.4978H15.9862C15.3552 33.4978 14.9345 33.9614 14.9345 34.6569C14.9345 35.3523 15.3552 35.816 15.9862 35.816H19.1414C19.7724 35.816 20.1931 35.3523 20.1931 34.6569C20.1931 33.9614 19.6672 33.4978 19.1414 33.4978Z" fill="#5CD6B6"/>
<path d="M47.1172 33.4978H41.9638C41.3328 33.4978 40.9121 33.9614 40.9121 34.6569C40.9121 35.3523 41.3328 35.816 41.9638 35.816H47.1172C47.7483 35.816 48.169 35.3523 48.169 34.6569C48.169 33.9614 47.6431 33.4978 47.1172 33.4978Z" fill="#5CD6B6"/>
<path d="M53.3224 33.4978H50.1672C49.5362 33.4978 49.1155 33.9614 49.1155 34.6569C49.1155 35.3523 49.5362 35.816 50.1672 35.816H53.3224C53.9534 35.816 54.3741 35.3523 54.3741 34.6569C54.3741 33.9614 53.8483 33.4978 53.3224 33.4978Z" fill="#5CD6B6"/>
<path d="M12.831 38.4818H7.67759C7.04655 38.4818 6.62586 38.9454 6.62586 39.6409C6.62586 40.3364 7.04655 40.8 7.67759 40.8H12.831C13.4621 40.8 13.8828 40.3364 13.8828 39.6409C13.8828 38.9454 13.4621 38.4818 12.831 38.4818Z" fill="#5CD6B6"/>
<path d="M19.1414 38.4818H15.9862C15.3552 38.4818 14.9345 38.9454 14.9345 39.6409C14.9345 40.3364 15.3552 40.8 15.9862 40.8H19.1414C19.7724 40.8 20.1931 40.3364 20.1931 39.6409C20.1931 38.9454 19.6672 38.4818 19.1414 38.4818Z" fill="#5CD6B6"/>
<path d="M47.1172 38.4818H41.9638C41.3328 38.4818 40.9121 38.9454 40.9121 39.6409C40.9121 40.3364 41.3328 40.8 41.9638 40.8H47.1172C47.7483 40.8 48.169 40.3364 48.169 39.6409C48.169 38.9454 47.6431 38.4818 47.1172 38.4818Z" fill="#5CD6B6"/>
<path d="M53.3224 38.4818H50.1672C49.5362 38.4818 49.1155 38.9454 49.1155 39.6409C49.1155 40.3364 49.5362 40.8 50.1672 40.8H53.3224C53.9534 40.8 54.3741 40.3364 54.3741 39.6409C54.3741 38.9454 53.8483 38.4818 53.3224 38.4818Z" fill="#5CD6B6"/>
</svg>
