<svg width="800" height="791" viewBox="0 0 800 791" fill="none" xmlns="http://www.w3.org/2000/svg">
<path d="M733.333 400C733.333 557.133 733.333 635.703 684.517 684.517C635.703 733.333 557.133 733.333 400 733.333C242.865 733.333 164.298 733.333 115.482 684.517C66.6667 635.703 66.6667 557.133 66.6667 400C66.6667 242.865 66.6667 164.298 115.482 115.482C164.298 66.6667 242.865 66.6667 400 66.6667C557.133 66.6667 635.703 66.6667 684.517 115.482C716.977 147.94 727.853 193.552 731.497 266.667" stroke="#1C274C" stroke-width="50" stroke-linecap="round"/>
<path fill-rule="evenodd" clip-rule="evenodd" d="M400.171 440.381L501.2 541.295C506.561 546.65 513.832 549.658 521.414 549.658C528.995 549.658 536.266 546.65 541.627 541.295C546.988 535.94 550 528.678 550 521.105C550 513.532 546.988 506.269 541.627 500.914L440.56 400L541.608 299.086C544.261 296.434 546.366 293.287 547.801 289.823C549.237 286.359 549.975 282.647 549.974 278.898C549.973 275.149 549.233 271.437 547.796 267.974C546.359 264.511 544.253 261.365 541.599 258.714C538.944 256.064 535.793 253.962 532.325 252.528C528.858 251.095 525.141 250.357 521.388 250.358C517.635 250.359 513.919 251.098 510.452 252.533C506.985 253.969 503.834 256.072 501.181 258.724L400.171 359.638L299.141 258.724C296.507 255.996 293.354 253.82 289.868 252.323C286.383 250.825 282.633 250.036 278.839 250.001C275.044 249.966 271.281 250.687 267.768 252.121C264.256 253.554 261.064 255.672 258.38 258.351C255.695 261.03 253.572 264.216 252.133 267.723C250.695 271.23 249.97 274.989 250.001 278.779C250.032 282.569 250.819 286.315 252.315 289.798C253.811 293.282 255.986 296.432 258.714 299.067L359.782 400L258.733 500.933C256.005 503.568 253.83 506.718 252.334 510.202C250.838 513.685 250.051 517.431 250.02 521.221C249.989 525.011 250.714 528.769 252.152 532.277C253.591 535.784 255.714 538.97 258.399 541.649C261.083 544.328 264.275 546.446 267.787 547.879C271.3 549.313 275.063 550.034 278.858 549.999C282.652 549.964 286.402 549.175 289.888 547.677C293.373 546.18 296.526 544.004 299.16 541.276L400.171 440.381Z" fill="#1C274C"/>
</svg>
