<svg width="158" height="180" viewBox="0 0 158 180" fill="none" xmlns="http://www.w3.org/2000/svg">
<path d="M146.734 64.7808C142.585 64.7808 138.991 67.3746 137.037 71.1818H132.169L122.554 60.255C121.498 59.0548 120.068 58.3797 118.572 58.3797H104.919C102.945 63.4923 99.7934 67.8465 95.9018 71.1498C95.9513 71.1514 95.9919 71.1818 96.0417 71.1818H116.239L125.854 82.1087C126.91 83.3089 128.34 83.984 129.837 83.984H137.037C138.991 87.7913 142.585 90.3851 146.734 90.3851C152.944 90.3851 157.999 84.6403 157.999 77.5829C157.999 70.5255 152.944 64.7808 146.734 64.7808Z" fill="#5CD6B6"/>
<path d="M146.735 32.7755C142.47 32.7755 138.795 35.5165 136.883 39.5C136.42 39.3605 135.971 39.1765 135.47 39.1765H106.732C107.103 41.2468 107.307 43.3846 107.307 45.5776C107.307 47.7694 107.109 49.9096 106.738 51.9787H135.47C135.971 51.9787 136.42 51.7943 136.883 51.6548C138.795 55.6383 142.47 58.3797 146.735 58.3797C152.945 58.3797 158 52.635 158 45.5776C158 38.5202 152.945 32.7755 146.735 32.7755Z" fill="#5CD6B6"/>
<path d="M146.735 0.77005C142.586 0.77005 138.992 3.36384 137.038 7.17112H129.838C128.341 7.17112 126.911 7.84623 125.855 9.04643L116.24 19.9733H96.0426C96.0107 19.9733 95.9845 19.9932 95.9526 19.994C99.829 23.2926 102.927 27.6792 104.898 32.7754H118.573C120.069 32.7754 121.499 32.1003 122.555 30.9001L132.17 19.9733H137.038C138.992 23.7805 142.586 26.3743 146.735 26.3743C152.945 26.3743 158 20.6296 158 13.5722C158 6.51476 152.945 0.77005 146.735 0.77005Z" fill="#5CD6B6"/>
<path d="M79.1452 19.9733C78.3731 19.9733 77.6429 20.1452 76.8907 20.2315C72.5966 8.79248 62.6173 0.77005 50.9828 0.77005C39.3483 0.77005 29.369 8.79248 25.0749 20.2315C24.3227 20.1452 23.5925 19.9733 22.8204 19.9733C10.3773 19.9733 0.290436 31.4365 0.290436 45.5775C0.290436 59.7182 10.3773 71.1818 22.8204 71.1818C28.1789 71.1818 33.0344 68.9674 36.9016 65.4172C40.7688 68.9674 45.6243 71.1818 50.9828 71.1818C56.3413 71.1818 61.1968 68.9674 65.064 65.4172C68.9312 68.9674 73.7867 71.1818 79.1452 71.1818C91.5883 71.1818 101.675 59.7182 101.675 45.5775C101.675 31.4365 91.5883 19.9733 79.1452 19.9733Z" fill="#5CD6B6"/>
<path d="M11.5554 154.396C15.7048 154.396 19.2984 156.989 21.2527 160.797H26.1207L35.7355 149.87C36.7916 148.67 38.2217 147.995 39.7178 147.995H53.37C55.3447 153.107 58.4961 157.461 62.3877 160.765C62.3382 160.766 62.2976 160.797 62.2478 160.797H42.05L32.4352 171.724C31.3791 172.924 29.949 173.599 28.4529 173.599H21.2527C19.2984 177.406 15.7048 180 11.5554 180C5.34537 180 0.290436 174.255 0.290436 167.198C0.290436 160.14 5.34537 154.396 11.5554 154.396Z" fill="#5CD6B6"/>
<path d="M11.5554 122.39C15.8203 122.39 19.4953 125.131 21.4074 129.115C21.8698 128.975 22.3191 128.791 22.8204 128.791H51.5586C51.187 130.862 50.9828 133 50.9828 135.193C50.9828 137.384 51.1808 139.524 51.5521 141.594H22.8204C22.3191 141.594 21.8698 141.409 21.4074 141.27C19.4953 145.253 15.8203 147.995 11.5554 147.995C5.34537 147.995 0.290436 142.25 0.290436 135.193C0.290436 128.135 5.34537 122.39 11.5554 122.39Z" fill="#5CD6B6"/>
<path d="M11.5554 90.385C15.7048 90.385 19.2984 92.9788 21.2527 96.7861H28.4529C29.949 96.7861 31.3791 97.4612 32.4352 98.6614L42.05 109.588H62.2478C62.2797 109.588 62.3059 109.608 62.3378 109.609C58.4614 112.908 55.3632 117.294 53.3924 122.39H39.7178C38.2217 122.39 36.7916 121.715 35.7355 120.515L26.1207 109.588H21.2527C19.2984 113.395 15.7048 115.989 11.5554 115.989C5.34537 115.989 0.290436 110.245 0.290436 103.187C0.290436 96.1297 5.34537 90.385 11.5554 90.385Z" fill="#5CD6B6"/>
<path d="M79.145 109.588C79.9171 109.588 80.6473 109.76 81.3995 109.846C85.6937 98.4074 95.6729 90.385 107.307 90.385C118.942 90.385 128.921 98.4074 133.215 109.846C133.968 109.76 134.698 109.588 135.47 109.588C147.913 109.588 158 121.051 158 135.192C158 149.333 147.913 160.797 135.47 160.797C130.111 160.797 125.256 158.582 121.389 155.032C117.521 158.582 112.666 160.797 107.307 160.797C101.949 160.797 97.0934 158.582 93.2262 155.032C89.359 158.582 84.5035 160.797 79.145 160.797C66.7019 160.797 56.6151 149.333 56.6151 135.192C56.6151 121.051 66.7019 109.588 79.145 109.588Z" fill="#5CD6B6"/>
</svg>
