<svg width="556" height="703" viewBox="0 0 556 703" fill="none" xmlns="http://www.w3.org/2000/svg">
<path d="M460.442 0.927979L409.481 52.3878C456.828 99.8613 483.574 164.005 483.574 231.41C483.574 298.689 456.919 363.212 409.472 410.786C362.025 458.359 297.673 485.085 230.573 485.085C163.708 485.085 99.3739 458.268 52.0265 410.795L0.703491 461.892C52.7494 514.077 121.06 547.055 194.43 555.027V630.043H49.858V702.521H411.288V630.043H266.716V555.39C431.167 536.908 555.86 397.386 555.86 231.41C555.86 145.16 521.524 62.1724 460.442 0.927979ZM230.573 32.0938C177.851 32.0938 127.289 53.0931 90.0097 90.4722C52.73 127.851 31.7865 178.548 31.7865 231.41C31.7865 284.272 52.73 334.969 90.0097 372.348C127.289 409.727 177.851 430.726 230.573 430.726C283.294 430.726 333.857 409.727 371.136 372.348C408.416 334.969 429.359 284.272 429.359 231.41C429.359 178.548 408.416 127.851 371.136 90.4722C333.857 53.0931 283.294 32.0938 230.573 32.0938ZM230.573 104.572C300.69 104.572 357.073 161.468 357.073 231.41C357.073 265.05 343.746 297.311 320.022 321.098C296.299 344.884 264.123 358.248 230.573 358.248C197.023 358.248 164.847 344.884 141.124 321.098C117.4 297.311 104.072 265.05 104.072 231.41C104.072 197.771 117.4 165.509 141.124 141.722C164.847 117.936 197.023 104.572 230.573 104.572Z" fill="#0C0C0C" fill-opacity="0.6"/>
</svg>
