<svg width="61" height="51" viewBox="0 0 61 51" fill="none" xmlns="http://www.w3.org/2000/svg">
<g clip-path="url(#clip0_22_297)">
<path d="M50.8115 10.5108H47.8071V9.4002C47.8071 9.20368 47.7114 9.0152 47.5412 8.87623C47.371 8.73727 47.1401 8.6592 46.8994 8.6592H43.1027C42.9836 8.6592 42.8656 8.67837 42.7555 8.71562C42.6454 8.75286 42.5454 8.80746 42.4612 8.87627C42.3769 8.94509 42.3102 9.02678 42.2646 9.11668C42.2191 9.20658 42.1957 9.30292 42.1958 9.4002V10.5108H21.691C21.6332 8.21653 20.479 6.03161 18.4749 4.4226C16.4242 2.7763 13.6598 1.85825 10.7837 1.8684C8.6375 1.87874 6.54325 2.40861 4.76601 3.39097C2.98877 4.37334 1.60843 5.76403 0.799655 7.38707C-0.00911754 9.01011 -0.209967 10.7925 0.222525 12.5088C0.655017 14.2251 1.70141 15.798 3.22929 17.0286C3.45932 17.214 3.70038 17.3886 3.94585 17.553V39.8622C3.94683 40.6952 4.35254 41.4939 5.07398 42.083C5.79541 42.6721 6.77364 43.0034 7.794 43.0044H20.3379L18.4087 45.4608H13.1348C12.7229 45.4611 12.328 45.5948 12.0366 45.8324C11.7452 46.0701 11.5812 46.3923 11.5804 46.7286V49.2294C11.5812 49.5656 11.7453 49.8878 12.0367 50.1254C12.3281 50.3629 12.723 50.4964 13.1348 50.4966H45.4722C45.8839 50.4964 46.2787 50.3629 46.57 50.1253C46.8613 49.8878 47.0252 49.5656 47.0258 49.2294V46.7286C47.0254 46.3923 46.8616 46.0699 46.5703 45.8321C46.279 45.5943 45.8841 45.4605 45.4722 45.4602H40.199L38.269 43.0038H50.8115C51.8319 43.0028 52.8101 42.6715 53.5315 42.0824C54.2529 41.4933 54.6587 40.6946 54.6596 39.8616V13.6524C54.6587 12.8194 54.2529 12.0208 53.5315 11.4318C52.81 10.8428 51.8318 10.5116 50.8115 10.5108ZM44.0111 10.1412H45.991V34.482H44.0111V10.1412ZM40.2115 34.482V17.0676H42.1958V34.482H40.2115ZM1.81894 10.7712C1.80505 8.81555 2.74255 6.93535 4.42552 5.54361C6.10849 4.15188 8.3993 3.3624 10.7948 3.3486H10.8558C13.1621 3.3446 15.3829 4.06119 17.0626 5.35138C18.7424 6.64157 19.7538 8.40757 19.8895 10.2872C20.0251 12.1668 19.2747 14.0175 17.7921 15.4598C16.3096 16.9021 14.2072 17.8267 11.9163 18.0438C11.5807 18.0777 11.2431 18.0959 10.905 18.0984C10.5713 18.0984 10.2347 18.084 9.89299 18.0558C7.68564 17.8642 5.64211 17.0155 4.15273 15.6717C2.66335 14.328 1.83252 12.5834 1.81894 10.7712ZM12.0919 22.644L12.1537 30.6786L9.85844 30.69L9.79597 22.656L12.0919 22.644ZM11.2004 19.5768L11.2129 21.1656L10.6522 21.1686L10.6397 19.5798C10.7029 19.5798 10.7668 19.5798 10.83 19.5798H10.9204H10.9373C11.0241 19.5792 11.1115 19.5792 11.2004 19.5768ZM8.82291 19.4244L8.83761 21.3402C8.69528 21.4015 8.56458 21.4793 8.44956 21.5712C8.29873 21.6953 8.17945 21.8425 8.0986 22.0044C8.01775 22.1663 7.97692 22.3396 7.97847 22.5144L8.04388 30.8496C8.04698 31.2014 8.22017 31.5379 8.52575 31.7859C8.83133 32.0339 9.24455 32.1733 9.67544 32.1738H9.68573L12.3514 32.16C12.7831 32.156 13.1955 32.0128 13.4984 31.7616C13.8013 31.5104 27.0977 27.8604 27.0957 27.5079L13.9036 22.4844C13.9031 22.3094 13.8599 22.1361 13.7766 21.9748C13.6934 21.8135 13.5716 21.6673 13.4185 21.5448C13.3022 21.454 13.1702 21.3775 13.0268 21.318L13.0121 19.401C15.1988 19.034 17.194 18.126 18.7262 16.8004C20.2584 15.4749 21.2533 13.7963 21.5756 11.9928H42.1958V15.5886H39.306C39.1868 15.5885 39.0687 15.6076 38.9586 15.6448C38.8484 15.6821 38.7483 15.7366 38.664 15.8055C38.5797 15.8743 38.5128 15.956 38.4673 16.0459C38.4217 16.1359 38.3983 16.2323 38.3984 16.3296V34.482H36.5037V15.1494C36.5038 15.0521 36.4804 14.9557 36.4348 14.8657C36.3892 14.7758 36.3224 14.6941 36.2381 14.6253C36.1538 14.5564 36.0537 14.5019 35.9435 14.4646C35.8333 14.4274 35.7153 14.4083 35.596 14.4084H31.7993C31.6801 14.4083 31.562 14.4274 31.4519 14.4646C31.3417 14.5019 31.2416 14.5564 31.1573 14.6253C31.073 14.6941 31.0062 14.7758 30.9606 14.8657C30.915 14.9557 30.8916 15.0521 30.8917 15.1494V19.7922H28.0034C27.8841 19.7922 27.766 19.8114 27.6559 19.8487C27.5457 19.8859 27.4456 19.9406 27.3613 20.0094C27.277 20.0783 27.2102 20.1601 27.1646 20.25C27.119 20.34 27.0956 20.4364 27.0957 20.5338V34.482H24.2728V22.8564C24.2729 22.759 24.2495 22.6626 24.2039 22.5726C24.1584 22.4827 24.0915 22.4009 24.0072 22.332C23.9229 22.2632 23.8228 22.2085 23.7127 22.1713C23.6025 22.134 23.4844 22.1148 23.3652 22.1148H19.5692C19.4499 22.1148 19.3319 22.134 19.2217 22.1713C19.1115 22.2085 19.0114 22.2632 18.9271 22.332C18.8428 22.4009 18.776 22.4827 18.7304 22.5726C18.6849 22.6626 18.6615 22.759 18.6616 22.8564V25.4328H15.7732C15.654 25.4327 15.5359 25.4518 15.4257 25.489C15.3155 25.5262 15.2153 25.5808 15.131 25.6496C15.0466 25.7184 14.9797 25.8002 14.934 25.8901C14.8884 25.98 14.8649 26.0764 14.8649 26.1738V34.482H12.5711C12.3304 34.482 12.0995 34.5601 11.9293 34.699C11.7591 34.838 11.6635 35.0265 11.6635 35.223C11.6635 35.4195 11.7591 35.608 11.9293 35.747C12.0995 35.8859 12.3304 35.964 12.5711 35.964H50.1008C50.3415 35.964 50.5724 35.8859 50.7426 35.747C50.9128 35.608 51.0085 35.4195 51.0085 35.223C51.0085 35.0265 50.9128 34.838 50.7426 34.699C50.5724 34.5601 50.3415 34.482 50.1008 34.482H47.8071V11.9928H50.8115C51.3504 11.9933 51.867 12.1683 52.248 12.4794C52.629 12.7906 52.8432 13.2124 52.8436 13.6524V37.104H5.76189V18.5496C6.72188 18.9664 7.75407 19.2614 8.82291 19.4244ZM28.9118 34.4844V21.2748H30.8917V34.482L28.9118 34.4844ZM32.7077 20.5338V15.8886H34.6876V34.482H32.7077V20.5338ZM16.6809 34.482V26.9148H18.6652V34.482H16.6809ZM20.4769 26.1738V23.5974H22.4612V34.482H20.4769V26.1738ZM45.209 46.9428V49.0146H13.3957V46.9428H45.209ZM38.0419 45.4608H20.5628L22.4935 43.0044H36.1127L38.0419 45.4608ZM50.8108 41.5218H7.794C7.2551 41.5213 6.73845 41.3463 6.35747 41.0352C5.97648 40.724 5.76228 40.3022 5.76189 39.8622V38.586H52.8436V39.8622C52.8432 40.3022 52.629 40.724 52.248 41.0352C51.867 41.3463 51.3497 41.5213 50.8108 41.5218ZM6.1492 15.9834C7.5079 16.7978 9.14957 17.237 10.8352 17.2368C11.252 17.2368 11.6683 17.2106 12.0802 17.1582C13.9034 16.9262 15.5717 16.1853 16.8008 15.0617C18.0299 13.9381 18.7438 12.5013 18.8208 10.9962C18.8977 9.49107 18.333 8.01072 17.2229 6.80739C16.1127 5.60407 14.5259 4.75223 12.7327 4.39703C10.9394 4.04183 9.05083 4.20525 7.38866 4.85944C5.72648 5.51363 4.39359 6.61811 3.61709 7.98468C2.8406 9.35125 2.66855 10.8954 3.13027 12.3539C3.59198 13.8124 4.6589 15.0951 6.1492 15.9834ZM5.87801 7.7598C6.71832 6.82077 7.93144 6.14865 9.31068 5.85795C10.6899 5.56725 12.15 5.67595 13.4421 6.16553C14.7341 6.65512 15.7783 7.4953 16.3967 8.54293C17.0151 9.59056 17.1694 10.7808 16.8334 11.9109C16.4974 13.041 15.6918 14.0411 14.5539 14.7407C13.416 15.4402 12.0162 15.7961 10.593 15.7476C9.16977 15.6991 7.81117 15.2492 6.74867 14.4746C5.68617 13.7 4.9855 12.6486 4.76605 11.4996C4.51537 10.182 4.91528 8.83697 5.87801 7.7598ZM6.59678 8.58C6.59678 8.48251 6.62033 8.38598 6.66607 8.29593C6.71181 8.20587 6.77885 8.12407 6.86336 8.05519C6.94787 7.98631 7.04818 7.9317 7.15856 7.89451C7.26894 7.85731 7.38722 7.83824 7.50664 7.8384H14.1997C14.3211 7.83558 14.442 7.85267 14.5552 7.88865C14.6684 7.92464 14.7716 7.97879 14.8587 8.0479C14.9458 8.11702 15.015 8.19969 15.0623 8.29104C15.1096 8.38238 15.134 8.48054 15.134 8.5797C15.134 8.67886 15.1096 8.77702 15.0623 8.86836C15.015 8.95971 14.9458 9.04238 14.8587 9.1115C14.7716 9.18061 14.6684 9.23476 14.5552 9.27075C14.442 9.30673 14.3211 9.32382 14.1997 9.321H7.50664C7.38726 9.32124 7.26899 9.30225 7.15862 9.26511C7.04824 9.22798 6.94792 9.17344 6.8634 9.1046C6.77889 9.03577 6.71183 8.95401 6.66608 8.86399C6.62033 8.77397 6.59678 8.67746 6.59678 8.58ZM6.59678 10.7256C6.59678 10.6281 6.62033 10.5316 6.66608 10.4416C6.71183 10.3516 6.77889 10.2698 6.8634 10.201C6.94792 10.1322 7.04824 10.0776 7.15862 10.0405C7.26899 10.0034 7.38726 9.98436 7.50664 9.9846H14.1997C14.3189 9.9846 14.437 10.0038 14.5471 10.041C14.6572 10.0782 14.7573 10.1328 14.8415 10.2016C14.9258 10.2704 14.9927 10.3521 15.0383 10.442C15.0839 10.5319 15.1074 10.6283 15.1074 10.7256C15.1074 10.8229 15.0839 10.9193 15.0383 11.0092C14.9927 11.0991 14.9258 11.1808 14.8415 11.2496C14.7573 11.3184 14.6572 11.373 14.5471 11.4102C14.437 11.4474 14.3189 11.4666 14.1997 11.4666H7.50664C7.26617 11.4671 7.03529 11.3896 6.8647 11.2513C6.69411 11.1129 6.59775 10.9249 6.59678 10.7286V10.7256ZM6.59678 12.8706C6.59678 12.7731 6.62033 12.6766 6.66608 12.5866C6.71183 12.4966 6.77889 12.4148 6.8634 12.346C6.94792 12.2772 7.04824 12.2226 7.15862 12.1855C7.26899 12.1484 7.38726 12.1294 7.50664 12.1296H14.1997C14.4405 12.1296 14.6713 12.2077 14.8415 12.3466C15.0118 12.4856 15.1074 12.6741 15.1074 12.8706C15.1074 13.0671 15.0118 13.2556 14.8415 13.3946C14.6713 13.5335 14.4405 13.6116 14.1997 13.6116H7.50664C7.38726 13.6118 7.26899 13.5928 7.15862 13.5557C7.04824 13.5186 6.94792 13.464 6.8634 13.3952C6.77889 13.3264 6.71183 13.2446 6.66608 13.1546C6.62033 13.0646 6.59678 12.9681 6.59678 12.8706ZM60.8706 3.1626V22.9446C60.8711 23.0422 60.848 23.1388 60.8026 23.2291C60.7572 23.3193 60.6904 23.4014 60.6061 23.4705C60.5217 23.5396 60.4215 23.5945 60.3112 23.6319C60.2008 23.6693 60.0825 23.6886 59.963 23.6886H56.6006C56.4792 23.6914 56.3583 23.6743 56.2451 23.6383C56.132 23.6024 56.0288 23.5482 55.9417 23.4791C55.8546 23.41 55.7853 23.3273 55.738 23.236C55.6908 23.1446 55.6664 23.0465 55.6664 22.9473C55.6664 22.8481 55.6908 22.75 55.738 22.6586C55.7853 22.5673 55.8546 22.4846 55.9417 22.4155C56.0288 22.3464 56.132 22.2922 56.2451 22.2563C56.3583 22.2203 56.4792 22.2032 56.6006 22.206H59.0583V3.906H43.5745C43.3382 3.90051 43.1138 3.82 42.949 3.68158C42.7842 3.54316 42.692 3.35773 42.692 3.1647C42.692 2.97167 42.7842 2.78624 42.949 2.64782C43.1138 2.5094 43.3382 2.42889 43.5745 2.4234H59.9637C60.2039 2.42356 60.4343 2.50145 60.6042 2.64001C60.7742 2.77857 60.87 2.96649 60.8706 3.1626ZM37.9177 7.575H40.8523C41.093 7.575 41.3239 7.49693 41.4941 7.35797C41.6643 7.219 41.76 7.03053 41.76 6.834V0.741C41.76 0.544475 41.6643 0.355998 41.4941 0.217034C41.3239 0.0780696 41.093 2.42939e-07 40.8523 2.42939e-07H37.9177C37.7985 -7.85911e-05 37.6803 0.0190296 37.5701 0.0562331C37.4599 0.0934365 37.3598 0.148006 37.2754 0.216822C37.1911 0.285638 37.1241 0.367352 37.0785 0.457293C37.0328 0.547234 37.0093 0.64364 37.0093 0.741V6.834C37.0093 6.93136 37.0328 7.02777 37.0785 7.11771C37.1241 7.20765 37.1911 7.28936 37.2754 7.35818C37.3598 7.427 37.4599 7.48156 37.5701 7.51877C37.6803 7.55597 37.7985 7.57508 37.9177 7.575ZM38.8254 1.4826H39.9447V6.0924H38.8254V1.4826ZM27.5602 1.746C27.5601 1.64867 27.5835 1.55228 27.6291 1.46234C27.6747 1.3724 27.7415 1.29068 27.8258 1.22186C27.9101 1.15303 28.0102 1.09846 28.1204 1.06124C28.2306 1.02403 28.3486 1.00492 28.4679 1.005H35.4343C35.6751 1.005 35.9059 1.08307 36.0762 1.22203C36.2464 1.361 36.342 1.54948 36.342 1.746C36.342 1.94253 36.2464 2.131 36.0762 2.26997C35.9059 2.40893 35.6751 2.487 35.4343 2.487H28.4679C28.3486 2.48708 28.2306 2.46797 28.1204 2.43076C28.0102 2.39354 27.9101 2.33897 27.8258 2.27014C27.7415 2.20132 27.6747 2.1196 27.6291 2.02966C27.5835 1.93972 27.5601 1.84333 27.5602 1.746ZM27.5602 3.786C27.5614 3.5901 27.6575 3.40255 27.8276 3.26436C27.9977 3.12617 28.2279 3.0486 28.4679 3.0486H35.4343C35.6707 3.05409 35.8951 3.1346 36.0599 3.27302C36.2247 3.41144 36.3169 3.59687 36.3169 3.7899C36.3169 3.98293 36.2247 4.16836 36.0599 4.30678C35.8951 4.4452 35.6707 4.52571 35.4343 4.5312H28.4679C28.3483 4.5312 28.2299 4.51192 28.1195 4.47445C28.0091 4.43699 27.9088 4.38208 27.8245 4.31289C27.7401 4.2437 27.6734 4.16159 27.628 4.07127C27.5827 3.98096 27.5596 3.88361 27.5602 3.786ZM27.5602 5.826C27.5614 5.6301 27.6575 5.44255 27.8276 5.30436C27.9977 5.16617 28.2279 5.0886 28.4679 5.0886H35.4343C35.6707 5.09409 35.8951 5.1746 36.0599 5.31302C36.2247 5.45144 36.3169 5.63687 36.3169 5.8299C36.3169 6.02293 36.2247 6.20836 36.0599 6.34678C35.8951 6.4852 35.6707 6.56571 35.4343 6.5712H28.4679C28.3484 6.5712 28.2301 6.55195 28.1198 6.51457C28.0095 6.47718 27.9093 6.42238 27.825 6.35332C27.7407 6.28426 27.6739 6.20229 27.6284 6.11211C27.583 6.02193 27.5598 5.92531 27.5602 5.8278V5.826Z" fill="#5CD6B6"/>
</g>
<defs>
<clipPath id="clip0_22_297">
<rect width="61" height="51" fill="white"/>
</clipPath>
</defs>
</svg>
