<svg width="341" height="85" viewBox="0 0 341 85" fill="none" xmlns="http://www.w3.org/2000/svg">
<g clip-path="url(#clip0_22_454)">
<path fill-rule="evenodd" clip-rule="evenodd" d="M29.7555 20.0076H53.057C65.5679 20.0076 70.2775 26.5241 69.5497 36.0978C68.3468 51.9035 59.0598 60.6479 46.7414 60.6479H40.5221C38.8319 60.6479 37.6951 61.799 37.2379 64.918L34.5974 83.0505C34.423 84.2263 33.8215 84.9071 32.9193 84.9999H18.2791C16.9017 84.9999 16.4145 83.9169 16.7754 81.5715L25.7015 23.4422C26.0503 21.1153 27.2894 20.0076 29.7555 20.0076Z" fill="#009EE3"/>
<path fill-rule="evenodd" clip-rule="evenodd" d="M130.919 18.9309C138.781 18.9309 146.035 23.3186 145.042 34.2538C143.839 47.2498 137.072 54.4409 126.396 54.4719H117.067C115.726 54.4719 115.076 55.5982 114.727 57.9065L112.923 69.7081C112.652 71.4904 111.762 72.3692 110.451 72.3692H101.771C100.388 72.3692 99.9067 71.4595 100.213 69.4234L107.377 22.1242C107.732 19.7973 108.58 18.9309 110.126 18.9309H130.901H130.919ZM116.784 44.2545H123.852C128.273 44.0812 131.208 40.9313 131.503 35.2502C131.683 31.7412 129.379 29.2287 125.716 29.2472L119.064 29.2782L116.784 44.2545ZM168.638 68.7489C169.432 68.0063 170.238 67.6226 170.124 68.5385L169.841 70.7292C169.697 71.8741 170.136 72.4806 171.171 72.4806H178.882C180.181 72.4806 180.812 71.9422 181.131 69.8752L185.883 39.1923C186.124 37.6513 185.757 36.8963 184.62 36.8963H176.139C175.375 36.8963 175.002 37.3357 174.804 38.5363L174.491 40.4238C174.328 41.4078 173.889 41.5811 173.48 40.5909C172.043 37.0882 168.374 35.5163 163.255 35.64C151.364 35.8938 143.346 45.1828 142.486 57.0896C141.824 66.2982 148.236 73.5326 156.693 73.5326C162.828 73.5326 165.571 71.6761 168.662 68.7675L168.638 68.7489ZM162.178 64.027C157.06 64.027 153.493 59.825 154.233 54.6761C154.973 49.5272 159.76 45.3252 164.879 45.3252C169.998 45.3252 173.565 49.5272 172.825 54.6761C172.085 59.825 167.303 64.027 162.178 64.027ZM200.974 36.7973H193.155C191.543 36.7973 190.887 38.035 191.399 39.5574L201.107 68.8046L191.585 82.7227C190.785 83.8861 191.405 84.9444 192.529 84.9444H201.317C201.829 85.0053 202.348 84.9134 202.81 84.6797C203.273 84.446 203.661 84.0803 203.928 83.6262L233.785 39.5636C234.706 38.2083 234.272 36.7849 232.763 36.7849H224.444C223.019 36.7849 222.447 37.3667 221.629 38.5858L209.178 57.1515L203.615 38.5425C203.29 37.4162 202.478 36.7973 200.98 36.7973H200.974Z" fill="#113984"/>
<path fill-rule="evenodd" clip-rule="evenodd" d="M264.846 18.9308C272.707 18.9308 279.961 23.3185 278.969 34.2537C277.766 47.2497 270.999 54.4408 260.323 54.4718H251C249.658 54.4718 249.009 55.5981 248.66 57.9064L246.856 69.708C246.585 71.4904 245.695 72.3691 244.383 72.3691H235.704C234.321 72.3691 233.839 71.4594 234.146 69.4234L241.322 22.1118C241.677 19.7849 242.525 18.9185 244.071 18.9185H264.846V18.9308ZM250.711 44.2545H257.779C262.199 44.0812 265.135 40.9312 265.429 35.2501C265.61 31.7412 263.306 29.2286 259.643 29.2472L252.991 29.2781L250.711 44.2545ZM302.565 68.7488C303.359 68.0062 304.165 67.6225 304.051 68.5384L303.768 70.7292C303.624 71.874 304.063 72.4805 305.097 72.4805H312.808C314.108 72.4805 314.739 71.9421 315.058 69.8752L319.81 39.1922C320.05 37.6513 319.683 36.8963 318.547 36.8963H310.078C309.314 36.8963 308.941 37.3356 308.742 38.5362L308.43 40.4237C308.267 41.4077 307.828 41.581 307.419 40.5908C305.982 37.0881 302.312 35.5162 297.194 35.64C285.303 35.8937 277.285 45.1828 276.425 57.0896C275.763 66.2982 282.175 73.5326 290.632 73.5326C296.767 73.5326 299.51 71.676 302.601 68.7674L302.565 68.7488ZM296.111 64.0269C290.993 64.0269 287.426 59.8249 288.166 54.676C288.905 49.5271 293.693 45.3251 298.812 45.3251C303.93 45.3251 307.497 49.5271 306.757 54.676C306.018 59.8249 301.23 64.0269 296.111 64.0269ZM331.677 72.53H322.775C322.62 72.5372 322.466 72.509 322.323 72.4476C322.18 72.3862 322.052 72.2931 321.948 72.1748C321.844 72.0566 321.766 71.9162 321.721 71.7636C321.676 71.6111 321.664 71.4501 321.686 71.2923L329.506 20.3233C329.58 19.9754 329.767 19.6638 330.036 19.4391C330.304 19.2143 330.639 19.0898 330.985 19.0856H339.887C340.042 19.0784 340.197 19.1066 340.34 19.168C340.483 19.2294 340.611 19.3225 340.715 19.4408C340.819 19.559 340.896 19.6994 340.941 19.852C340.986 20.0045 340.998 20.1655 340.976 20.3233L333.157 71.2923C333.084 71.6425 332.899 71.9569 332.63 72.1841C332.361 72.4112 332.025 72.5376 331.677 72.5424V72.53Z" fill="#009EE3"/>
<path fill-rule="evenodd" clip-rule="evenodd" d="M15.1816 0H38.5072C45.0754 0 52.8707 0.2166 58.0795 4.95086C61.5621 8.11321 63.3907 13.1445 62.9696 18.5657C61.5381 36.8901 50.8858 47.1569 36.5945 47.1569H25.0941C23.1333 47.1569 21.8401 48.4936 21.2867 52.1077L18.0748 73.1489C17.8643 74.5104 17.2928 75.3149 16.2703 75.4139H1.87678C0.282847 75.4139 -0.282554 74.1762 0.13247 71.4408L10.478 3.99781C10.893 1.28722 12.3426 0 15.1816 0Z" fill="#113984"/>
<path fill-rule="evenodd" clip-rule="evenodd" d="M21.6234 49.9727L25.6954 23.4423C26.0503 21.1154 27.2894 20.0015 29.7555 20.0015H53.057C56.9125 20.0015 60.0342 20.6203 62.4763 21.7652C60.1365 38.0783 49.8812 47.1383 36.456 47.1383H24.9737C23.4339 47.1445 22.3031 47.9367 21.6234 49.9727Z" fill="#172C70"/>
</g>
<defs>
<clipPath id="clip0_22_454">
<rect width="341" height="85" fill="white"/>
</clipPath>
</defs>
</svg>
