<svg width="522" height="534" viewBox="0 0 522 534" fill="none" xmlns="http://www.w3.org/2000/svg">
<path d="M233.189 254.647H252.132L301.588 310.871L310.161 300.458C310.375 300.203 330.287 276.042 349.717 254.647H468.037C496.573 254.647 519.79 230.896 519.79 201.704V52.9431C519.796 23.7511 496.579 0 468.037 0H233.189C204.653 0 181.436 23.7511 181.436 52.9431V201.704C181.436 230.896 204.653 254.647 233.189 254.647ZM204.607 52.9431C204.607 36.8223 217.43 23.7037 233.189 23.7037H468.037C483.795 23.7037 496.619 36.8223 496.619 52.9431V201.704C496.619 217.825 483.795 230.943 468.037 230.943H339.683L336.255 234.675C323.298 248.755 309.633 264.71 301.078 274.856L262.45 230.949H233.189C217.43 230.949 204.607 217.83 204.607 201.71V52.9431Z" fill="#5CD6B6"/>
<path d="M79.373 343.065H90.3176C114.881 343.065 134.972 322.506 134.972 297.385V274.701C134.972 249.574 114.875 229.021 90.3176 229.021H79.373C54.81 229.021 34.7188 249.58 34.7188 274.701V297.385C34.7188 322.506 54.8158 343.065 79.373 343.065ZM57.8898 274.696C57.8898 262.574 67.5294 252.718 79.373 252.718H90.3176C102.167 252.718 111.801 262.58 111.801 274.696V297.379C111.801 309.5 102.161 319.356 90.3176 319.356H79.373C67.5236 319.356 57.8898 309.495 57.8898 297.379V274.696Z" fill="#5CD6B6"/>
<path d="M144.321 434.979V435.34H146.073L144.321 434.979Z" fill="#5CD6B6"/>
<path d="M25.375 425.467C25.375 405.804 41.0118 389.808 60.233 389.808H109.458C123.604 389.808 135.784 398.488 141.242 410.895H84.3842V434.599H142.477H161.257L185.994 364.55H279.972L246.767 452.025H227.894H4.25139V475.729H279.224H329.017V452.025H279.224H271.62L277.959 435.334L313.826 340.852H169.725L153.451 386.93C142.784 374.221 127.014 366.104 109.458 366.104H60.233C28.3156 366.104 2.20399 392.816 2.20399 425.467V435.334H25.375V425.467Z" fill="#5CD6B6"/>
<path d="M430.795 290.247C406.232 290.247 386.141 310.806 386.141 335.928V358.611C386.141 383.738 406.238 404.291 430.795 404.291H441.74C466.303 404.291 486.394 383.732 486.394 358.611V335.928C486.394 310.8 466.297 290.247 441.74 290.247H430.795ZM463.223 335.933V358.617C463.223 370.738 453.583 380.594 441.74 380.594H430.795C418.946 380.594 409.312 370.733 409.312 358.617V335.933C409.312 323.812 418.951 313.956 430.795 313.956H441.74C453.589 313.951 463.223 323.812 463.223 335.933Z" fill="#5CD6B6"/>
<path d="M353.626 486.705V497.605V534H518.909V486.705C518.909 483.828 518.636 481.015 518.242 478.238C515.562 459.287 504.101 443.149 488.198 434.397C480.043 429.911 470.74 427.342 460.88 427.342H411.655C401.795 427.342 392.492 429.905 384.337 434.397C366.102 444.43 353.626 464.147 353.626 486.705ZM376.797 486.705C376.797 467.042 392.434 451.046 411.655 451.046H460.88C480.101 451.046 495.738 467.042 495.738 486.705V510.296H376.797V486.705Z" fill="#5CD6B6"/>
<path d="M289.693 152.107C297.938 152.107 304.622 145.269 304.622 136.834C304.622 128.4 297.938 121.562 289.693 121.562C281.447 121.562 274.763 128.4 274.763 136.834C274.763 145.269 281.447 152.107 289.693 152.107Z" fill="#5CD6B6"/>
<path d="M350.616 152.107C358.861 152.107 365.545 145.269 365.545 136.834C365.545 128.4 358.861 121.562 350.616 121.562C342.371 121.562 335.687 128.4 335.687 136.834C335.687 145.269 342.371 152.107 350.616 152.107Z" fill="#5CD6B6"/>
<path d="M411.545 152.107C419.79 152.107 426.474 145.269 426.474 136.834C426.474 128.4 419.79 121.562 411.545 121.562C403.3 121.562 396.616 128.4 396.616 136.834C396.616 145.269 403.3 152.107 411.545 152.107Z" fill="#5CD6B6"/>
</svg>
