<svg width="182" height="178" viewBox="0 0 182 178" fill="none" xmlns="http://www.w3.org/2000/svg">
<g clip-path="url(#clip0_13_123)">
<path d="M168.571 0.5H13.4286C10.4895 0.5 7.67087 1.66142 5.59266 3.72876C3.51445 5.7961 2.34692 8.60002 2.34692 11.5237L2.34692 62.9675C2.34692 65.8912 3.51445 68.6951 5.59266 70.7625C7.67087 72.8298 10.4895 73.9912 13.4286 73.9912H50.3673C51.3469 73.991 52.2863 73.6037 52.9789 72.9146L87.3061 38.7669L110.552 61.8909C111.248 62.5602 112.181 62.9306 113.15 62.9223C114.118 62.9139 115.045 62.5274 115.73 61.8461C116.415 61.1648 116.803 60.2432 116.812 59.2798C116.82 58.3163 116.448 57.3881 115.775 56.6951L107.305 48.2693L116.857 38.7669L136.409 58.2163C137.105 58.8857 138.039 59.2561 139.007 59.2477C139.976 59.2393 140.902 58.8529 141.587 58.1716C142.272 57.4903 142.66 56.5687 142.669 55.6052C142.677 54.6417 142.305 53.7135 141.632 53.0205L119.469 30.9731C118.776 30.2843 117.837 29.8973 116.857 29.8973C115.878 29.8973 114.938 30.2843 114.246 30.9731L102.082 43.0735L89.9177 30.9731C89.225 30.2843 88.2856 29.8973 87.3061 29.8973C86.3266 29.8973 85.3872 30.2843 84.6945 30.9731L48.8381 66.6421H13.4286C12.4489 66.6421 11.5093 66.255 10.8166 65.5658C10.1239 64.8767 9.73468 63.9421 9.73468 62.9675V11.5237C9.73468 10.5491 10.1239 9.61449 10.8166 8.92538C11.5093 8.23626 12.4489 7.84912 13.4286 7.84912H168.571C169.551 7.84912 170.491 8.23626 171.183 8.92538C171.876 9.61449 172.265 10.5491 172.265 11.5237V62.9675C172.265 63.9421 171.876 64.8767 171.183 65.5658C170.491 66.255 169.551 66.6421 168.571 66.6421H72.5306C71.5509 66.6421 70.6114 67.0292 69.9186 67.7184C69.2259 68.4075 68.8367 69.3421 68.8367 70.3167C68.8367 71.2912 69.2259 72.2259 69.9186 72.915C70.6114 73.6041 71.5509 73.9912 72.5306 73.9912H168.571C171.51 73.9912 174.329 72.8298 176.407 70.7625C178.486 68.6951 179.653 65.8912 179.653 62.9675V11.5237C179.653 8.60002 178.486 5.7961 176.407 3.72876C174.329 1.66142 171.51 0.5 168.571 0.5Z" fill="#5CD6B6"/>
<path d="M9.73468 132.784C10.7143 132.784 11.6537 132.397 12.3463 131.708L38.2034 105.986C38.8763 105.293 39.2486 104.364 39.2402 103.401C39.2318 102.437 38.8433 101.516 38.1584 100.835C37.4735 100.153 36.5471 99.7668 35.5785 99.7584C34.61 99.7501 33.6769 100.12 32.9803 100.79L9.73468 123.914V88.6895H46.6735V125.435H28.2041C27.2244 125.435 26.2848 125.822 25.5921 126.511C24.8994 127.2 24.5102 128.135 24.5102 129.11C24.5102 130.084 24.8994 131.019 25.5921 131.708C26.2848 132.397 27.2244 132.784 28.2041 132.784H46.6735C48.6328 132.784 50.5119 132.01 51.8974 130.632C53.2829 129.253 54.0612 127.384 54.0612 125.435V88.6895C54.0612 86.7403 53.2829 84.8711 51.8974 83.4928C50.5119 82.1146 48.6328 81.3403 46.6735 81.3403H9.73468C7.77532 81.3403 5.89622 82.1146 4.51075 83.4928C3.12527 84.8711 2.34692 86.7403 2.34692 88.6895L2.34692 125.435C2.34692 127.384 3.12527 129.253 4.51075 130.632C5.89622 132.01 7.77532 132.784 9.73468 132.784Z" fill="#5CD6B6"/>
<path d="M91 125.435C90.0203 125.435 89.0808 125.822 88.388 126.511C87.6953 127.2 87.3061 128.135 87.3061 129.11C87.3061 130.084 87.6953 131.019 88.388 131.708C89.0808 132.397 90.0203 132.784 91 132.784H109.469C111.429 132.784 113.308 132.01 114.693 130.632C116.079 129.253 116.857 127.384 116.857 125.435V88.6895C116.857 86.7403 116.079 84.8711 114.693 83.4928C113.308 82.1146 111.429 81.3403 109.469 81.3403H72.5306C70.5713 81.3403 68.6922 82.1146 67.3067 83.4928C65.9212 84.8711 65.1429 86.7403 65.1429 88.6895V125.435C65.1429 127.384 65.9212 129.253 67.3067 130.632C68.6922 132.01 70.5713 132.784 72.5306 132.784C73.5102 132.784 74.4496 132.397 75.1422 131.708L100.999 105.986C101.672 105.293 102.045 104.364 102.036 103.401C102.028 102.437 101.639 101.516 100.954 100.835C100.269 100.153 99.343 99.7668 98.3745 99.7584C97.4059 99.7501 96.4728 100.12 95.7762 100.79L72.5306 123.914V88.6895H109.469V125.435H91Z" fill="#5CD6B6"/>
<path d="M172.265 81.3403H135.327C133.367 81.3403 131.488 82.1146 130.103 83.4928C128.717 84.8711 127.939 86.7403 127.939 88.6895V125.435C127.939 127.384 128.717 129.253 130.103 130.632C131.488 132.01 133.367 132.784 135.327 132.784C136.306 132.784 137.246 132.397 137.938 131.708L163.795 105.986C164.468 105.293 164.84 104.364 164.832 103.401C164.824 102.437 164.435 101.516 163.75 100.835C163.065 100.153 162.139 99.7668 161.17 99.7584C160.202 99.7501 159.269 100.12 158.572 100.79L135.327 123.914V88.6895H172.265V125.435H153.796C152.816 125.435 151.877 125.822 151.184 126.511C150.491 127.2 150.102 128.135 150.102 129.11C150.102 130.084 150.491 131.019 151.184 131.708C151.877 132.397 152.816 132.784 153.796 132.784H172.265C174.225 132.784 176.104 132.01 177.489 130.632C178.875 129.253 179.653 127.384 179.653 125.435V88.6895C179.653 86.7403 178.875 84.8711 177.489 83.4928C176.104 82.1146 174.225 81.3403 172.265 81.3403Z" fill="#5CD6B6"/>
<path d="M172.265 140.133H9.73468C7.77532 140.133 5.89622 140.908 4.51075 142.286C3.12527 143.664 2.34692 145.533 2.34692 147.482L2.34692 169.53C2.34692 171.479 3.12527 173.348 4.51075 174.726C5.89622 176.105 7.77532 176.879 9.73468 176.879H172.265C174.225 176.879 176.104 176.105 177.489 174.726C178.875 173.348 179.653 171.479 179.653 169.53V147.482C179.653 145.533 178.875 143.664 177.489 142.286C176.104 140.908 174.225 140.133 172.265 140.133ZM172.265 169.53H9.73468V147.482H172.265V169.53Z" fill="#5CD6B6"/>
<path d="M28.2041 33.571C28.2041 36.4781 29.0706 39.3198 30.6942 41.737C32.3177 44.1541 34.6254 46.038 37.3252 47.1505C40.0251 48.2629 42.996 48.554 45.8621 47.9869C48.7283 47.4197 51.3611 46.0199 53.4274 43.9643C55.4938 41.9087 56.9011 39.2897 57.4712 36.4385C58.0413 33.5874 57.7487 30.632 56.6304 27.9463C55.5121 25.2605 53.6182 22.965 51.1884 21.3499C48.7586 19.7348 45.9019 18.8728 42.9796 18.8728C39.0609 18.8728 35.3027 20.4214 32.5317 23.1778C29.7608 25.9343 28.2041 29.6728 28.2041 33.571ZM50.3673 33.571C50.3673 35.0246 49.9341 36.4454 49.1223 37.654C48.3105 38.8626 47.1567 39.8045 45.8068 40.3608C44.4568 40.917 42.9714 41.0625 41.5383 40.779C40.1052 40.4954 38.7888 39.7955 37.7557 38.7677C36.7225 37.7399 36.0188 36.4304 35.7338 35.0048C35.4487 33.5792 35.595 32.1015 36.1542 30.7587C36.7133 29.4158 37.6603 28.268 38.8752 27.4605C40.0901 26.6529 41.5184 26.2219 42.9796 26.2219C44.9389 26.2219 46.818 26.9962 48.2035 28.3744C49.589 29.7527 50.3673 31.6219 50.3673 33.571Z" fill="#5CD6B6"/>
</g>
<defs>
<clipPath id="clip0_13_123">
<rect width="181" height="177" fill="white" transform="translate(0.5 0.5)"/>
</clipPath>
</defs>
</svg>
