<svg width="182" height="175" viewBox="0 0 182 175" fill="none" xmlns="http://www.w3.org/2000/svg">
<path d="M177.716 29.9143H23.1233C22.1233 29.9143 21.1643 30.2964 20.4572 30.9766C19.75 31.6568 19.3528 32.5794 19.3528 33.5413C19.3528 34.5033 19.75 35.4259 20.4572 36.1061C21.1643 36.7863 22.1233 37.1684 23.1233 37.1684H173.946V87.9473C173.946 88.9093 174.343 89.8318 175.05 90.5121C175.757 91.1923 176.716 91.5744 177.716 91.5744C178.716 91.5744 179.675 91.1923 180.383 90.5121C181.09 89.8318 181.487 88.9093 181.487 87.9473V33.5413C181.487 32.5794 181.09 31.6568 180.383 30.9766C179.675 30.2964 178.716 29.9143 177.716 29.9143Z" fill="#5CD6B6"/>
<path d="M90.9935 167.743H19.3528C16.3528 167.743 13.4756 166.596 11.3542 164.556C9.23289 162.515 8.04112 159.747 8.04112 156.862V19.0331C8.04112 16.1472 9.23289 13.3796 11.3542 11.3389C13.4756 9.29832 16.3528 8.15191 19.3528 8.15191H162.634C164.141 8.07511 165.647 8.30397 167.056 8.82363C168.464 9.34329 169.743 10.1421 170.81 11.1683C171.877 12.1944 172.707 13.4249 173.248 14.7799C173.788 16.1348 174.026 17.584 173.946 19.0331C173.946 19.9951 174.343 20.9176 175.05 21.5978C175.757 22.278 176.716 22.6602 177.716 22.6602C178.716 22.6602 179.675 22.278 180.383 21.5978C181.09 20.9176 181.487 19.9951 181.487 19.0331C181.582 16.6271 181.159 14.2282 180.245 11.9867C179.331 9.74515 177.946 7.70935 176.176 6.00681C174.406 4.30427 172.29 2.97169 169.959 2.09255C167.629 1.21341 165.135 0.806659 162.634 0.897782H19.3528C14.3546 0.903541 9.56276 2.81607 6.02847 6.21586C2.49418 9.61564 0.505987 14.2251 0.5 19.0331L0.5 156.862C0.505987 161.67 2.49418 166.279 6.02847 169.679C9.56276 173.079 14.3546 174.991 19.3528 174.997H90.9935C91.9935 174.997 92.9526 174.615 93.6597 173.935C94.3668 173.254 94.7641 172.332 94.7641 171.37C94.7641 170.408 94.3668 169.485 93.6597 168.805C92.9526 168.125 91.9935 167.743 90.9935 167.743Z" fill="#5CD6B6"/>
<path d="M23.1233 15.406C22.1233 15.406 21.1643 15.7882 20.4572 16.4684C19.75 17.1486 19.3528 18.0711 19.3528 19.0331C19.3528 19.9951 19.75 20.9176 20.4572 21.5978C21.1643 22.278 22.1233 22.6602 23.1233 22.6602H30.6645C31.6645 22.6602 32.6235 22.278 33.3307 21.5978C34.0378 20.9176 34.435 19.9951 34.435 19.0331C34.435 18.0711 34.0378 17.1486 33.3307 16.4684C32.6235 15.7882 31.6645 15.406 30.6645 15.406H23.1233Z" fill="#5CD6B6"/>
<path d="M45.7468 15.406C44.7467 15.406 43.7877 15.7882 43.0806 16.4684C42.3735 17.1486 41.9762 18.0711 41.9762 19.0331C41.9762 19.9951 42.3735 20.9176 43.0806 21.5978C43.7877 22.278 44.7467 22.6602 45.7468 22.6602H53.2879C54.2879 22.6602 55.247 22.278 55.9541 21.5978C56.6612 20.9176 57.0584 19.9951 57.0584 19.0331C57.0584 18.0711 56.6612 17.1486 55.9541 16.4684C55.247 15.7882 54.2879 15.406 53.2879 15.406H45.7468Z" fill="#5CD6B6"/>
<path d="M155.093 15.406C154.093 15.406 153.134 15.7882 152.427 16.4684C151.72 17.1486 151.323 18.0711 151.323 19.0331C151.323 19.9951 151.72 20.9176 152.427 21.5978C153.134 22.278 154.093 22.6602 155.093 22.6602H162.634C163.634 22.6602 164.593 22.278 165.3 21.5978C166.008 20.9176 166.405 19.9951 166.405 19.0331C166.405 18.0711 166.008 17.1486 165.3 16.4684C164.593 15.7882 163.634 15.406 162.634 15.406H155.093Z" fill="#5CD6B6"/>
<path d="M170.175 116.964H164.436C164.038 115.887 163.582 114.83 163.072 113.797L167.129 109.891C168.542 108.531 169.337 106.686 169.337 104.762C169.337 102.839 168.542 100.994 167.129 99.6337L161.797 94.5051C160.383 93.1451 158.465 92.3811 156.465 92.3811C154.466 92.3811 152.548 93.1451 151.134 94.5051L147.073 98.4078C146 97.9165 144.901 97.4783 143.781 97.0948V91.5744C143.781 89.6505 142.987 87.8054 141.573 86.4449C140.158 85.0845 138.24 84.3203 136.24 84.3203H128.699C126.699 84.3203 124.781 85.0845 123.367 86.4449C121.952 87.8054 121.158 89.6505 121.158 91.5744V97.0948C120.038 97.4783 118.94 97.9165 117.866 98.4078L113.805 94.5051C112.391 93.1451 110.473 92.3811 108.474 92.3811C106.474 92.3811 104.556 93.1451 103.142 94.5051L97.8106 99.6337C96.3969 100.994 95.6027 102.839 95.6027 104.762C95.6027 106.686 96.3969 108.531 97.8106 109.891L101.868 113.797C101.357 114.83 100.902 115.887 100.503 116.964H94.764C92.764 116.964 90.8459 117.728 89.4316 119.089C88.0174 120.449 87.2229 122.294 87.2229 124.218V131.472C87.2229 133.396 88.0174 135.241 89.4316 136.602C90.8459 137.962 92.764 138.726 94.764 138.726H100.503C100.902 139.803 101.357 140.86 101.868 141.893L97.8106 145.799C96.3969 147.159 95.6027 149.004 95.6027 150.928C95.6027 152.851 96.3969 154.696 97.8106 156.056L103.142 161.185C104.556 162.545 106.474 163.309 108.474 163.309C110.473 163.309 112.391 162.545 113.805 161.185L117.866 157.282C118.94 157.774 120.038 158.212 121.158 158.595V164.116C121.158 166.04 121.952 167.885 123.367 169.245C124.781 170.606 126.699 171.37 128.699 171.37H136.24C138.24 171.37 140.158 170.606 141.573 169.245C142.987 167.885 143.781 166.04 143.781 164.116V158.595C144.901 158.212 146 157.774 147.073 157.282L151.134 161.185C152.548 162.545 154.466 163.309 156.465 163.309C158.465 163.309 160.383 162.545 161.797 161.185L167.129 156.056C168.542 154.696 169.337 152.851 169.337 150.928C169.337 149.004 168.542 147.159 167.129 145.799L163.072 141.893C163.582 140.86 164.038 139.803 164.436 138.726H170.175C172.175 138.726 174.093 137.962 175.508 136.602C176.922 135.241 177.716 133.396 177.716 131.472V124.218C177.716 122.294 176.922 120.449 175.508 119.089C174.093 117.728 172.175 116.964 170.175 116.964ZM170.175 131.472H161.646C160.81 131.472 159.998 131.74 159.338 132.232C158.677 132.724 158.205 133.414 157.996 134.192C157.381 136.484 156.435 138.681 155.187 140.721C154.762 141.414 154.588 142.224 154.693 143.022C154.798 143.82 155.176 144.563 155.768 145.132L161.801 150.935L156.469 156.064L150.436 150.26C149.845 149.691 149.073 149.327 148.243 149.226C147.413 149.125 146.572 149.292 145.851 149.702C143.731 150.902 141.447 151.812 139.064 152.404C138.255 152.605 137.538 153.059 137.026 153.694C136.515 154.33 136.237 155.111 136.236 155.915V164.116H128.699V155.911C128.699 155.107 128.421 154.326 127.909 153.691C127.397 153.055 126.68 152.601 125.871 152.4C123.489 151.808 121.205 150.899 119.084 149.698C118.364 149.289 117.522 149.121 116.692 149.222C115.862 149.324 115.091 149.687 114.499 150.257L108.466 156.06L103.135 150.931L109.168 145.128C109.759 144.559 110.138 143.817 110.243 143.018C110.348 142.22 110.174 141.41 109.748 140.717C108.5 138.678 107.555 136.48 106.939 134.189C106.73 133.41 106.258 132.721 105.598 132.228C104.937 131.736 104.125 131.469 103.289 131.468H94.764V124.218H103.293C104.129 124.218 104.941 123.95 105.601 123.458C106.262 122.966 106.734 122.276 106.943 121.498C107.558 119.206 108.504 117.009 109.752 114.969C110.178 114.276 110.352 113.467 110.246 112.668C110.141 111.87 109.763 111.127 109.171 110.558L103.138 104.755L108.47 99.6265L114.503 105.43C115.094 105.999 115.866 106.363 116.696 106.464C117.526 106.565 118.368 106.398 119.088 105.988C121.208 104.788 123.493 103.878 125.875 103.286C126.684 103.085 127.401 102.631 127.913 101.996C128.425 101.36 128.703 100.579 128.703 99.7752V91.5744H136.244V99.7788C136.244 100.583 136.522 101.364 137.034 101.999C137.546 102.635 138.263 103.089 139.072 103.29C141.454 103.882 143.739 104.791 145.859 105.992C146.579 106.401 147.421 106.569 148.251 106.468C149.081 106.367 149.852 106.003 150.444 105.433L156.477 99.6301L161.808 104.759L155.775 110.562C155.184 111.131 154.805 111.873 154.7 112.672C154.595 113.47 154.769 114.28 155.195 114.973C156.443 117.012 157.388 119.21 158.004 121.501C158.213 122.28 158.685 122.969 159.345 123.462C160.006 123.954 160.818 124.221 161.654 124.222H170.175V131.472Z" fill="#5CD6B6"/>
<path d="M132.47 113.337C129.487 113.337 126.571 114.188 124.09 115.782C121.61 117.376 119.677 119.642 118.536 122.293C117.394 124.944 117.095 127.861 117.677 130.675C118.259 133.49 119.696 136.075 121.805 138.104C123.914 140.133 126.602 141.515 129.527 142.075C132.453 142.634 135.486 142.347 138.241 141.249C140.997 140.151 143.353 138.291 145.01 135.905C146.667 133.52 147.552 130.715 147.552 127.845C147.552 123.997 145.963 120.307 143.134 117.586C140.306 114.865 136.47 113.337 132.47 113.337ZM132.47 135.099C130.978 135.099 129.52 134.674 128.28 133.877C127.04 133.08 126.073 131.947 125.503 130.621C124.932 129.296 124.783 127.837 125.073 126.43C125.364 125.023 126.083 123.73 127.137 122.716C128.192 121.701 129.536 121.01 130.999 120.73C132.461 120.45 133.978 120.594 135.356 121.143C136.734 121.692 137.911 122.622 138.74 123.815C139.569 125.008 140.011 126.41 140.011 127.845C140.011 129.769 139.216 131.614 137.802 132.975C136.388 134.335 134.47 135.099 132.47 135.099Z" fill="#5CD6B6"/>
<path d="M44.6421 56.3665C43.935 55.6865 42.9761 55.3045 41.9763 55.3045C40.9765 55.3045 40.0176 55.6865 39.3105 56.3665L20.4577 74.5018C19.7509 75.182 19.3538 76.1044 19.3538 77.0661C19.3538 78.0279 19.7509 78.9503 20.4577 79.6305L39.3105 97.7658C40.0217 98.4265 40.9741 98.7921 41.9628 98.7838C42.9514 98.7755 43.8971 98.3941 44.5962 97.7216C45.2953 97.0491 45.6918 96.1394 45.7004 95.1884C45.709 94.2374 45.329 93.3212 44.6421 92.6371L28.4551 77.0661L44.6421 61.4951C45.349 60.815 45.7461 59.8926 45.7461 58.9308C45.7461 57.969 45.349 57.0466 44.6421 56.3665Z" fill="#5CD6B6"/>
<path d="M65.7044 97.7658C66.4115 98.4458 67.3704 98.8278 68.3702 98.8278C69.37 98.8278 70.3289 98.4458 71.036 97.7658L89.8888 79.6305C90.5957 78.9503 90.9928 78.0279 90.9928 77.0662C90.9928 76.1044 90.5957 75.182 89.8888 74.5018L71.036 56.3665C70.3249 55.7058 69.3724 55.3402 68.3838 55.3485C67.3952 55.3567 66.4495 55.7382 65.7504 56.4107C65.0513 57.0832 64.6547 57.9929 64.6461 58.9439C64.6375 59.8949 65.0176 60.8111 65.7044 61.4952L81.8915 77.0662L65.7044 92.6371C64.9976 93.3173 64.6005 94.2397 64.6005 95.2015C64.6005 96.1632 64.9976 97.0856 65.7044 97.7658Z" fill="#5CD6B6"/>
</svg>
